<svg id="Layer_1" data-name="Layer 1" xmlns="http://www.w3.org/2000/svg" viewBox="0 0 201.2 151.5"><defs><style>.cls-1{fill:#faed24;}</style></defs><title>logo</title><path class="cls-1" d="M133.44,357.5a1.68,1.68,0,0,1-1.12-.28,4.55,4.55,0,0,1-3.07-3.63l-6.41-72-9.2,5a4.3,4.3,0,0,1-4.46-.28L44.74,241.2a4.63,4.63,0,0,1-1.67-4.46,3.63,3.63,0,0,1,3.63-3.07l192.73-27.61a4.15,4.15,0,0,1,4.18,2,4.22,4.22,0,0,1-.28,4.74L136.78,355.83A3.65,3.65,0,0,1,133.44,357.5Zm-2.79-81.72,5.86,66.38,88.14-118.54ZM58.41,240.36l52.16,36.82,107.66-59.69Z" transform="translate(-43 -206)"/></svg>